<svg xmlns="http://www.w3.org/2000/svg" xmlns:xlink="http://www.w3.org/1999/xlink" width="500" zoomAndPan="magnify" viewBox="0 0 375 374.999991" height="500" preserveAspectRatio="xMidYMid meet" version="1.0"><defs><g/><clipPath id="fbd8c30d26"><path d="M 65 184 L 109.5 184 L 109.5 234 L 65 234 Z M 65 184 " clip-rule="nonzero"/></clipPath><clipPath id="5853ae69ee"><path d="M 99.359375 205.519531 C 95.683594 208.613281 91.195312 210.570312 86.738281 212.367188 C 82.28125 214.160156 77.722656 215.855469 73.738281 218.550781 C 73.707031 218.574219 73.675781 218.585938 73.644531 218.609375 C 68.894531 221.84375 65.859375 227.054688 65.296875 232.769531 C 65.257812 233.15625 65.226562 233.542969 65.195312 233.9375 C 66.316406 229.265625 69.753906 225.421875 73.738281 222.726562 C 77.722656 220.035156 82.273438 218.339844 86.738281 216.546875 C 91.195312 214.75 95.683594 212.800781 99.359375 209.699219 C 106.40625 203.761719 109.632812 194.089844 109.054688 184.875 C 108.566406 192.738281 105.347656 200.472656 99.359375 205.519531 Z M 99.359375 205.519531 " clip-rule="nonzero"/></clipPath><linearGradient x1="10163.4121" gradientTransform="matrix(-0.0773766, 0, 0, 0.0773766, 873.566514, 141.056567)" y1="566.299927" x2="10163.4121" gradientUnits="userSpaceOnUse" y2="1200.39993" id="723b9f5d1e"><stop stop-opacity="1" stop-color="rgb(15.129089%, 67.333984%, 59.196472%)" offset="0"/><stop stop-opacity="1" stop-color="rgb(15.21759%, 67.256165%, 59.025574%)" offset="0.125"/><stop stop-opacity="1" stop-color="rgb(15.394592%, 67.100525%, 58.682251%)" offset="0.25"/><stop stop-opacity="1" stop-color="rgb(15.571594%, 66.946411%, 58.340454%)" offset="0.375"/><stop stop-opacity="1" stop-color="rgb(15.748596%, 66.790771%, 57.997131%)" offset="0.5"/><stop stop-opacity="1" stop-color="rgb(15.925598%, 66.636658%, 57.655334%)" offset="0.625"/><stop stop-opacity="1" stop-color="rgb(16.101074%, 66.481018%, 57.312012%)" offset="0.75"/><stop stop-opacity="1" stop-color="rgb(16.278076%, 66.325378%, 56.970215%)" offset="0.875"/><stop stop-opacity="1" stop-color="rgb(16.455078%, 66.171265%, 56.626892%)" offset="1"/></linearGradient><clipPath id="e85e572cc7"><path d="M 62 155 L 105 155 L 105 227 L 62 227 Z M 62 155 " clip-rule="nonzero"/></clipPath><clipPath id="6ef77908af"><path d="M 104.789062 179.898438 C 103.976562 171.085938 99.78125 162.855469 94.304688 155.90625 C 96.09375 161.035156 93.539062 166.832031 89.632812 170.613281 C 85.730469 174.398438 80.664062 176.679688 75.921875 179.328125 C 71.175781 181.972656 66.457031 185.269531 64.097656 190.160156 C 62.285156 193.914062 62.0625 198.277344 62.710938 202.394531 C 63.136719 205.109375 63.917969 207.746094 64.824219 210.355469 C 66.101562 207.238281 67.820312 204.304688 69.929688 201.671875 C 74.265625 196.28125 79.726562 191.863281 85.328125 187.792969 C 96.039062 180.007812 96.75 176.8125 96.980469 171.03125 C 98.066406 175.722656 95.714844 180.613281 92.417969 184.117188 C 89.121094 187.621094 84.933594 190.152344 81.226562 193.222656 C 71.417969 201.363281 65.109375 213.589844 64.167969 226.300781 C 65.210938 221.96875 68.390625 218.394531 72.089844 215.902344 C 75.789062 213.402344 80.011719 211.832031 84.144531 210.167969 C 88.285156 208.503906 92.449219 206.695312 95.851562 203.816406 C 102.628906 198.121094 105.59375 188.710938 104.789062 179.898438 Z M 104.789062 179.898438 " clip-rule="nonzero"/></clipPath><linearGradient x1="10208.751" gradientTransform="matrix(-0.0773766, 0, 0, 0.0773766, 873.566514, 141.056567)" y1="191.899942" x2="10208.751" gradientUnits="userSpaceOnUse" y2="1101.699864" id="b39f8c0c7a"><stop stop-opacity="1" stop-color="rgb(14.294434%, 68.066406%, 60.81543%)" offset="0"/><stop stop-opacity="1" stop-color="rgb(14.356995%, 68.009949%, 60.691833%)" offset="0.0625"/><stop stop-opacity="1" stop-color="rgb(14.485168%, 67.89856%, 60.446167%)" offset="0.125"/><stop stop-opacity="1" stop-color="rgb(14.611816%, 67.78717%, 60.2005%)" offset="0.1875"/><stop stop-opacity="1" stop-color="rgb(14.738464%, 67.675781%, 59.954834%)" offset="0.25"/><stop stop-opacity="1" stop-color="rgb(14.865112%, 67.564392%, 59.709167%)" offset="0.3125"/><stop stop-opacity="1" stop-color="rgb(14.99176%, 67.454529%, 59.463501%)" offset="0.375"/><stop stop-opacity="1" stop-color="rgb(15.118408%, 67.34314%, 59.217834%)" offset="0.4375"/><stop stop-opacity="1" stop-color="rgb(15.245056%, 67.23175%, 58.970642%)" offset="0.5"/><stop stop-opacity="1" stop-color="rgb(15.371704%, 67.120361%, 58.724976%)" offset="0.5625"/><stop stop-opacity="1" stop-color="rgb(15.498352%, 67.008972%, 58.479309%)" offset="0.625"/><stop stop-opacity="1" stop-color="rgb(15.625%, 66.897583%, 58.233643%)" offset="0.6875"/><stop stop-opacity="1" stop-color="rgb(15.751648%, 66.786194%, 57.987976%)" offset="0.75"/><stop stop-opacity="1" stop-color="rgb(15.879822%, 66.674805%, 57.74231%)" offset="0.8125"/><stop stop-opacity="1" stop-color="rgb(16.00647%, 66.563416%, 57.496643%)" offset="0.875"/><stop stop-opacity="1" stop-color="rgb(16.133118%, 66.453552%, 57.250977%)" offset="0.9375"/><stop stop-opacity="1" stop-color="rgb(16.259766%, 66.342163%, 57.00531%)" offset="1"/></linearGradient><clipPath id="aac59fee35"><path d="M 43 141.054688 L 80 141.054688 L 80 198 L 43 198 Z M 43 141.054688 " clip-rule="nonzero"/></clipPath></defs><rect x="-37.5" width="450" fill="#ffffff" y="-37.499999" height="449.999989" fill-opacity="1"/><rect x="-37.5" width="450" fill="#ffffff" y="-37.499999" height="449.999989" fill-opacity="1"/><g clip-path="url(#fbd8c30d26)"><g clip-path="url(#5853ae69ee)"><path fill="url(#723b9f5d1e)" d="M 109.5 184.875 L 109.5 233.9375 L 65.195312 233.9375 L 65.195312 184.875 Z M 109.5 184.875 " fill-rule="nonzero"/></g></g><g clip-path="url(#e85e572cc7)"><g clip-path="url(#6ef77908af)"><path fill="url(#b39f8c0c7a)" d="M 105.59375 155.90625 L 105.59375 226.300781 L 62.0625 226.300781 L 62.0625 155.90625 Z M 105.59375 155.90625 " fill-rule="nonzero"/></g></g><g clip-path="url(#aac59fee35)"><path fill="#510cb5" d="M 61.753906 187.96875 C 62.835938 185.71875 64.421875 183.808594 66.277344 182.144531 C 65.832031 181.515625 65.375 180.898438 64.894531 180.285156 C 61.914062 176.503906 58.355469 173.160156 55.863281 169.035156 C 53.378906 164.910156 52.097656 159.640625 54.148438 155.285156 C 53.289062 162.078125 54.496094 164.886719 62.03125 174.113281 C 63.894531 176.402344 65.816406 178.667969 67.640625 181 C 69.492188 179.535156 71.53125 178.273438 73.582031 177.136719 C 75.386719 176.132812 77.234375 175.179688 79.046875 174.171875 C 77.335938 171.828125 75.191406 169.730469 73.003906 167.8125 C 68.917969 164.230469 64.445312 160.933594 61.425781 156.414062 C 58.402344 151.898438 57.117188 145.699219 59.941406 141.054688 C 53.125 146.699219 47.296875 153.863281 44.660156 162.3125 C 42.023438 170.761719 42.941406 180.582031 48.367188 187.574219 C 51.097656 191.097656 54.789062 193.742188 58.488281 196.242188 C 59.011719 196.597656 59.539062 196.953125 60.066406 197.300781 C 59.910156 194.089844 60.367188 190.855469 61.753906 187.96875 Z M 61.753906 187.96875 " fill-opacity="1" fill-rule="nonzero"/></g><g fill="#510cb5" fill-opacity="1"><g transform="translate(112.726558, 201.749987)"><g><path d="M 14.859375 -3.265625 C 14.859375 -2.941406 14.847656 -2.671875 14.828125 -2.453125 C 14.816406 -2.242188 14.796875 -2.0625 14.765625 -1.90625 C 14.734375 -1.757812 14.691406 -1.640625 14.640625 -1.546875 C 14.597656 -1.453125 14.503906 -1.332031 14.359375 -1.1875 C 14.210938 -1.050781 13.957031 -0.878906 13.59375 -0.671875 C 13.238281 -0.472656 12.832031 -0.289062 12.375 -0.125 C 11.914062 0.03125 11.414062 0.15625 10.875 0.25 C 10.34375 0.351562 9.789062 0.40625 9.21875 0.40625 C 7.945312 0.40625 6.816406 0.207031 5.828125 -0.1875 C 4.847656 -0.582031 4.023438 -1.164062 3.359375 -1.9375 C 2.691406 -2.707031 2.1875 -3.648438 1.84375 -4.765625 C 1.507812 -5.878906 1.34375 -7.15625 1.34375 -8.59375 C 1.34375 -10.25 1.546875 -11.679688 1.953125 -12.890625 C 2.367188 -14.097656 2.945312 -15.097656 3.6875 -15.890625 C 4.4375 -16.679688 5.316406 -17.265625 6.328125 -17.640625 C 7.335938 -18.023438 8.453125 -18.21875 9.671875 -18.21875 C 10.160156 -18.21875 10.644531 -18.175781 11.125 -18.09375 C 11.601562 -18.007812 12.046875 -17.890625 12.453125 -17.734375 C 12.867188 -17.585938 13.238281 -17.421875 13.5625 -17.234375 C 13.894531 -17.046875 14.128906 -16.882812 14.265625 -16.75 C 14.398438 -16.613281 14.492188 -16.5 14.546875 -16.40625 C 14.609375 -16.3125 14.65625 -16.191406 14.6875 -16.046875 C 14.71875 -15.898438 14.738281 -15.71875 14.75 -15.5 C 14.769531 -15.28125 14.78125 -15.019531 14.78125 -14.71875 C 14.78125 -14 14.71875 -13.492188 14.59375 -13.203125 C 14.476562 -12.910156 14.320312 -12.765625 14.125 -12.765625 C 13.914062 -12.765625 13.691406 -12.847656 13.453125 -13.015625 C 13.210938 -13.191406 12.929688 -13.382812 12.609375 -13.59375 C 12.296875 -13.8125 11.914062 -14.003906 11.46875 -14.171875 C 11.019531 -14.347656 10.488281 -14.4375 9.875 -14.4375 C 8.65625 -14.4375 7.722656 -13.96875 7.078125 -13.03125 C 6.441406 -12.101562 6.125 -10.734375 6.125 -8.921875 C 6.125 -8.035156 6.203125 -7.25 6.359375 -6.5625 C 6.523438 -5.882812 6.765625 -5.316406 7.078125 -4.859375 C 7.390625 -4.398438 7.785156 -4.054688 8.265625 -3.828125 C 8.742188 -3.597656 9.296875 -3.484375 9.921875 -3.484375 C 10.566406 -3.484375 11.117188 -3.578125 11.578125 -3.765625 C 12.046875 -3.960938 12.453125 -4.175781 12.796875 -4.40625 C 13.148438 -4.644531 13.441406 -4.859375 13.671875 -5.046875 C 13.910156 -5.242188 14.109375 -5.34375 14.265625 -5.34375 C 14.378906 -5.34375 14.472656 -5.3125 14.546875 -5.25 C 14.617188 -5.1875 14.675781 -5.070312 14.71875 -4.90625 C 14.757812 -4.738281 14.789062 -4.523438 14.8125 -4.265625 C 14.84375 -4.003906 14.859375 -3.671875 14.859375 -3.265625 Z M 14.859375 -3.265625 "/></g></g></g><g fill="#510cb5" fill-opacity="1"><g transform="translate(128.624655, 201.749987)"><g><path d="M 18.03125 -0.625 C 18.03125 -0.507812 18 -0.40625 17.9375 -0.3125 C 17.875 -0.21875 17.765625 -0.140625 17.609375 -0.078125 C 17.460938 -0.015625 17.257812 0.03125 17 0.0625 C 16.75 0.09375 16.429688 0.109375 16.046875 0.109375 C 15.640625 0.109375 15.304688 0.09375 15.046875 0.0625 C 14.796875 0.03125 14.597656 -0.015625 14.453125 -0.078125 C 14.304688 -0.140625 14.203125 -0.21875 14.140625 -0.3125 C 14.078125 -0.40625 14.046875 -0.507812 14.046875 -0.625 L 14.046875 -2.546875 C 13.128906 -1.554688 12.195312 -0.8125 11.25 -0.3125 C 10.300781 0.175781 9.320312 0.421875 8.3125 0.421875 C 7.175781 0.421875 6.21875 0.238281 5.4375 -0.125 C 4.664062 -0.5 4.039062 -1.003906 3.5625 -1.640625 C 3.09375 -2.285156 2.753906 -3.03125 2.546875 -3.875 C 2.347656 -4.726562 2.25 -5.785156 2.25 -7.046875 L 2.25 -17.1875 C 2.25 -17.3125 2.28125 -17.414062 2.34375 -17.5 C 2.414062 -17.59375 2.539062 -17.671875 2.71875 -17.734375 C 2.894531 -17.796875 3.132812 -17.84375 3.4375 -17.875 C 3.738281 -17.90625 4.113281 -17.921875 4.5625 -17.921875 C 5.019531 -17.921875 5.394531 -17.90625 5.6875 -17.875 C 5.988281 -17.84375 6.226562 -17.796875 6.40625 -17.734375 C 6.59375 -17.671875 6.722656 -17.59375 6.796875 -17.5 C 6.867188 -17.414062 6.90625 -17.3125 6.90625 -17.1875 L 6.90625 -7.828125 C 6.90625 -6.960938 6.957031 -6.300781 7.0625 -5.84375 C 7.175781 -5.382812 7.347656 -4.988281 7.578125 -4.65625 C 7.804688 -4.332031 8.097656 -4.082031 8.453125 -3.90625 C 8.804688 -3.726562 9.21875 -3.640625 9.6875 -3.640625 C 10.28125 -3.640625 10.875 -3.851562 11.46875 -4.28125 C 12.070312 -4.71875 12.710938 -5.347656 13.390625 -6.171875 L 13.390625 -17.1875 C 13.390625 -17.3125 13.421875 -17.414062 13.484375 -17.5 C 13.554688 -17.59375 13.679688 -17.671875 13.859375 -17.734375 C 14.046875 -17.796875 14.285156 -17.84375 14.578125 -17.875 C 14.878906 -17.90625 15.257812 -17.921875 15.71875 -17.921875 C 16.175781 -17.921875 16.550781 -17.90625 16.84375 -17.875 C 17.144531 -17.84375 17.378906 -17.796875 17.546875 -17.734375 C 17.722656 -17.671875 17.847656 -17.59375 17.921875 -17.5 C 17.992188 -17.414062 18.03125 -17.3125 18.03125 -17.1875 Z M 18.03125 -0.625 "/></g></g></g><g fill="#510cb5" fill-opacity="1"><g transform="translate(149.012063, 201.749987)"><g><path d="M 18.03125 -0.625 C 18.03125 -0.507812 18 -0.40625 17.9375 -0.3125 C 17.875 -0.21875 17.765625 -0.140625 17.609375 -0.078125 C 17.460938 -0.015625 17.257812 0.03125 17 0.0625 C 16.75 0.09375 16.429688 0.109375 16.046875 0.109375 C 15.640625 0.109375 15.304688 0.09375 15.046875 0.0625 C 14.796875 0.03125 14.597656 -0.015625 14.453125 -0.078125 C 14.304688 -0.140625 14.203125 -0.21875 14.140625 -0.3125 C 14.078125 -0.40625 14.046875 -0.507812 14.046875 -0.625 L 14.046875 -2.546875 C 13.128906 -1.554688 12.195312 -0.8125 11.25 -0.3125 C 10.300781 0.175781 9.320312 0.421875 8.3125 0.421875 C 7.175781 0.421875 6.21875 0.238281 5.4375 -0.125 C 4.664062 -0.5 4.039062 -1.003906 3.5625 -1.640625 C 3.09375 -2.285156 2.753906 -3.03125 2.546875 -3.875 C 2.347656 -4.726562 2.25 -5.785156 2.25 -7.046875 L 2.25 -17.1875 C 2.25 -17.3125 2.28125 -17.414062 2.34375 -17.5 C 2.414062 -17.59375 2.539062 -17.671875 2.71875 -17.734375 C 2.894531 -17.796875 3.132812 -17.84375 3.4375 -17.875 C 3.738281 -17.90625 4.113281 -17.921875 4.5625 -17.921875 C 5.019531 -17.921875 5.394531 -17.90625 5.6875 -17.875 C 5.988281 -17.84375 6.226562 -17.796875 6.40625 -17.734375 C 6.59375 -17.671875 6.722656 -17.59375 6.796875 -17.5 C 6.867188 -17.414062 6.90625 -17.3125 6.90625 -17.1875 L 6.90625 -7.828125 C 6.90625 -6.960938 6.957031 -6.300781 7.0625 -5.84375 C 7.175781 -5.382812 7.347656 -4.988281 7.578125 -4.65625 C 7.804688 -4.332031 8.097656 -4.082031 8.453125 -3.90625 C 8.804688 -3.726562 9.21875 -3.640625 9.6875 -3.640625 C 10.28125 -3.640625 10.875 -3.851562 11.46875 -4.28125 C 12.070312 -4.71875 12.710938 -5.347656 13.390625 -6.171875 L 13.390625 -17.1875 C 13.390625 -17.3125 13.421875 -17.414062 13.484375 -17.5 C 13.554688 -17.59375 13.679688 -17.671875 13.859375 -17.734375 C 14.046875 -17.796875 14.285156 -17.84375 14.578125 -17.875 C 14.878906 -17.90625 15.257812 -17.921875 15.71875 -17.921875 C 16.175781 -17.921875 16.550781 -17.90625 16.84375 -17.875 C 17.144531 -17.84375 17.378906 -17.796875 17.546875 -17.734375 C 17.722656 -17.671875 17.847656 -17.59375 17.921875 -17.5 C 17.992188 -17.414062 18.03125 -17.3125 18.03125 -17.1875 Z M 18.03125 -0.625 "/></g></g></g><g fill="#510cb5" fill-opacity="1"><g transform="translate(169.39947, 201.749987)"><g><path d="M 12.96875 -15.640625 C 12.96875 -15.191406 12.953125 -14.828125 12.921875 -14.546875 C 12.898438 -14.265625 12.863281 -14.039062 12.8125 -13.875 C 12.769531 -13.71875 12.707031 -13.609375 12.625 -13.546875 C 12.539062 -13.484375 12.441406 -13.453125 12.328125 -13.453125 C 12.222656 -13.453125 12.109375 -13.472656 11.984375 -13.515625 C 11.859375 -13.554688 11.71875 -13.601562 11.5625 -13.65625 C 11.414062 -13.707031 11.25 -13.753906 11.0625 -13.796875 C 10.875 -13.835938 10.671875 -13.859375 10.453125 -13.859375 C 10.191406 -13.859375 9.929688 -13.804688 9.671875 -13.703125 C 9.410156 -13.597656 9.140625 -13.429688 8.859375 -13.203125 C 8.578125 -12.984375 8.285156 -12.6875 7.984375 -12.3125 C 7.679688 -11.945312 7.359375 -11.492188 7.015625 -10.953125 L 7.015625 -0.625 C 7.015625 -0.507812 6.976562 -0.40625 6.90625 -0.3125 C 6.832031 -0.21875 6.703125 -0.140625 6.515625 -0.078125 C 6.335938 -0.015625 6.097656 0.03125 5.796875 0.0625 C 5.503906 0.09375 5.128906 0.109375 4.671875 0.109375 C 4.210938 0.109375 3.832031 0.09375 3.53125 0.0625 C 3.238281 0.03125 3.003906 -0.015625 2.828125 -0.078125 C 2.648438 -0.140625 2.523438 -0.21875 2.453125 -0.3125 C 2.378906 -0.40625 2.34375 -0.507812 2.34375 -0.625 L 2.34375 -17.1875 C 2.34375 -17.3125 2.375 -17.414062 2.4375 -17.5 C 2.5 -17.59375 2.609375 -17.671875 2.765625 -17.734375 C 2.921875 -17.796875 3.125 -17.84375 3.375 -17.875 C 3.632812 -17.90625 3.957031 -17.921875 4.34375 -17.921875 C 4.738281 -17.921875 5.066406 -17.90625 5.328125 -17.875 C 5.585938 -17.84375 5.785156 -17.796875 5.921875 -17.734375 C 6.066406 -17.671875 6.171875 -17.59375 6.234375 -17.5 C 6.296875 -17.414062 6.328125 -17.3125 6.328125 -17.1875 L 6.328125 -15.125 C 6.765625 -15.738281 7.171875 -16.242188 7.546875 -16.640625 C 7.929688 -17.046875 8.296875 -17.367188 8.640625 -17.609375 C 8.992188 -17.847656 9.34375 -18.007812 9.6875 -18.09375 C 10.03125 -18.1875 10.375 -18.234375 10.71875 -18.234375 C 10.882812 -18.234375 11.054688 -18.222656 11.234375 -18.203125 C 11.421875 -18.191406 11.613281 -18.160156 11.8125 -18.109375 C 12.007812 -18.066406 12.179688 -18.019531 12.328125 -17.96875 C 12.484375 -17.914062 12.59375 -17.859375 12.65625 -17.796875 C 12.726562 -17.734375 12.78125 -17.664062 12.8125 -17.59375 C 12.84375 -17.519531 12.867188 -17.414062 12.890625 -17.28125 C 12.921875 -17.15625 12.941406 -16.960938 12.953125 -16.703125 C 12.960938 -16.441406 12.96875 -16.085938 12.96875 -15.640625 Z M 12.96875 -15.640625 "/></g></g></g><g fill="#510cb5" fill-opacity="1"><g transform="translate(182.477801, 201.749987)"><g><path d="M 17.625 -9.390625 C 17.625 -8.816406 17.492188 -8.394531 17.234375 -8.125 C 16.984375 -7.851562 16.640625 -7.71875 16.203125 -7.71875 L 6.125 -7.71875 C 6.125 -7.007812 6.207031 -6.367188 6.375 -5.796875 C 6.539062 -5.222656 6.804688 -4.734375 7.171875 -4.328125 C 7.535156 -3.929688 8.003906 -3.625 8.578125 -3.40625 C 9.148438 -3.195312 9.84375 -3.09375 10.65625 -3.09375 C 11.46875 -3.09375 12.179688 -3.148438 12.796875 -3.265625 C 13.421875 -3.390625 13.957031 -3.519531 14.40625 -3.65625 C 14.851562 -3.800781 15.222656 -3.929688 15.515625 -4.046875 C 15.816406 -4.171875 16.0625 -4.234375 16.25 -4.234375 C 16.363281 -4.234375 16.457031 -4.207031 16.53125 -4.15625 C 16.601562 -4.113281 16.664062 -4.035156 16.71875 -3.921875 C 16.769531 -3.816406 16.800781 -3.660156 16.8125 -3.453125 C 16.832031 -3.253906 16.84375 -3 16.84375 -2.6875 C 16.84375 -2.414062 16.835938 -2.179688 16.828125 -1.984375 C 16.816406 -1.796875 16.796875 -1.632812 16.765625 -1.5 C 16.742188 -1.363281 16.707031 -1.25 16.65625 -1.15625 C 16.613281 -1.0625 16.550781 -0.972656 16.46875 -0.890625 C 16.382812 -0.804688 16.160156 -0.6875 15.796875 -0.53125 C 15.441406 -0.382812 14.984375 -0.238281 14.421875 -0.09375 C 13.867188 0.0390625 13.234375 0.160156 12.515625 0.265625 C 11.804688 0.367188 11.039062 0.421875 10.21875 0.421875 C 8.75 0.421875 7.457031 0.238281 6.34375 -0.125 C 5.238281 -0.5 4.316406 -1.0625 3.578125 -1.8125 C 2.835938 -2.570312 2.285156 -3.523438 1.921875 -4.671875 C 1.554688 -5.828125 1.375 -7.175781 1.375 -8.71875 C 1.375 -10.1875 1.566406 -11.507812 1.953125 -12.6875 C 2.335938 -13.875 2.894531 -14.878906 3.625 -15.703125 C 4.351562 -16.523438 5.238281 -17.148438 6.28125 -17.578125 C 7.320312 -18.015625 8.5 -18.234375 9.8125 -18.234375 C 11.195312 -18.234375 12.378906 -18.03125 13.359375 -17.625 C 14.347656 -17.21875 15.15625 -16.648438 15.78125 -15.921875 C 16.414062 -15.203125 16.878906 -14.347656 17.171875 -13.359375 C 17.472656 -12.367188 17.625 -11.289062 17.625 -10.125 Z M 13.09375 -10.71875 C 13.132812 -12.03125 12.875 -13.0625 12.3125 -13.8125 C 11.75 -14.5625 10.878906 -14.9375 9.703125 -14.9375 C 9.109375 -14.9375 8.59375 -14.820312 8.15625 -14.59375 C 7.71875 -14.375 7.351562 -14.078125 7.0625 -13.703125 C 6.769531 -13.328125 6.546875 -12.878906 6.390625 -12.359375 C 6.234375 -11.847656 6.144531 -11.300781 6.125 -10.71875 Z M 13.09375 -10.71875 "/></g></g></g><g fill="#510cb5" fill-opacity="1"><g transform="translate(201.613271, 201.749987)"><g><path d="M 6.796875 -2.015625 C 6.796875 -1.140625 6.648438 -0.554688 6.359375 -0.265625 C 6.066406 0.0234375 5.535156 0.171875 4.765625 0.171875 C 4.023438 0.171875 3.507812 0.03125 3.21875 -0.25 C 2.9375 -0.539062 2.796875 -1.113281 2.796875 -1.96875 C 2.796875 -2.84375 2.941406 -3.425781 3.234375 -3.71875 C 3.523438 -4.007812 4.054688 -4.15625 4.828125 -4.15625 C 5.566406 -4.15625 6.078125 -4.007812 6.359375 -3.71875 C 6.648438 -3.4375 6.796875 -2.867188 6.796875 -2.015625 Z M 6.796875 -2.015625 "/></g></g></g><g fill="#14bcbb" fill-opacity="1"><g transform="translate(211.210927, 201.749987)"><g><path d="M 18.140625 -0.625 C 18.140625 -0.507812 18.101562 -0.40625 18.03125 -0.3125 C 17.957031 -0.21875 17.832031 -0.140625 17.65625 -0.078125 C 17.488281 -0.015625 17.253906 0.03125 16.953125 0.0625 C 16.648438 0.09375 16.273438 0.109375 15.828125 0.109375 C 15.367188 0.109375 14.988281 0.09375 14.6875 0.0625 C 14.382812 0.03125 14.144531 -0.015625 13.96875 -0.078125 C 13.800781 -0.140625 13.675781 -0.21875 13.59375 -0.3125 C 13.519531 -0.40625 13.484375 -0.507812 13.484375 -0.625 L 13.484375 -10.078125 C 13.484375 -10.878906 13.425781 -11.507812 13.3125 -11.96875 C 13.195312 -12.425781 13.023438 -12.816406 12.796875 -13.140625 C 12.578125 -13.472656 12.289062 -13.726562 11.9375 -13.90625 C 11.582031 -14.082031 11.171875 -14.171875 10.703125 -14.171875 C 10.109375 -14.171875 9.507812 -13.953125 8.90625 -13.515625 C 8.300781 -13.085938 7.671875 -12.460938 7.015625 -11.640625 L 7.015625 -0.625 C 7.015625 -0.507812 6.976562 -0.40625 6.90625 -0.3125 C 6.832031 -0.21875 6.703125 -0.140625 6.515625 -0.078125 C 6.335938 -0.015625 6.097656 0.03125 5.796875 0.0625 C 5.503906 0.09375 5.128906 0.109375 4.671875 0.109375 C 4.210938 0.109375 3.832031 0.09375 3.53125 0.0625 C 3.238281 0.03125 3.003906 -0.015625 2.828125 -0.078125 C 2.648438 -0.140625 2.523438 -0.21875 2.453125 -0.3125 C 2.378906 -0.40625 2.34375 -0.507812 2.34375 -0.625 L 2.34375 -25.03125 C 2.34375 -25.15625 2.378906 -25.265625 2.453125 -25.359375 C 2.523438 -25.460938 2.648438 -25.546875 2.828125 -25.609375 C 3.003906 -25.679688 3.238281 -25.734375 3.53125 -25.765625 C 3.832031 -25.804688 4.210938 -25.828125 4.671875 -25.828125 C 5.128906 -25.828125 5.503906 -25.804688 5.796875 -25.765625 C 6.097656 -25.734375 6.335938 -25.679688 6.515625 -25.609375 C 6.703125 -25.546875 6.832031 -25.460938 6.90625 -25.359375 C 6.976562 -25.265625 7.015625 -25.15625 7.015625 -25.03125 L 7.015625 -15.890625 C 7.816406 -16.679688 8.632812 -17.269531 9.46875 -17.65625 C 10.300781 -18.039062 11.171875 -18.234375 12.078125 -18.234375 C 13.203125 -18.234375 14.148438 -18.046875 14.921875 -17.671875 C 15.703125 -17.304688 16.328125 -16.800781 16.796875 -16.15625 C 17.273438 -15.519531 17.617188 -14.769531 17.828125 -13.90625 C 18.035156 -13.050781 18.140625 -12.007812 18.140625 -10.78125 Z M 18.140625 -0.625 "/></g></g></g><g fill="#14bcbb" fill-opacity="1"><g transform="translate(231.598334, 201.749987)"><g><path d="M 17.625 -9.390625 C 17.625 -8.816406 17.492188 -8.394531 17.234375 -8.125 C 16.984375 -7.851562 16.640625 -7.71875 16.203125 -7.71875 L 6.125 -7.71875 C 6.125 -7.007812 6.207031 -6.367188 6.375 -5.796875 C 6.539062 -5.222656 6.804688 -4.734375 7.171875 -4.328125 C 7.535156 -3.929688 8.003906 -3.625 8.578125 -3.40625 C 9.148438 -3.195312 9.84375 -3.09375 10.65625 -3.09375 C 11.46875 -3.09375 12.179688 -3.148438 12.796875 -3.265625 C 13.421875 -3.390625 13.957031 -3.519531 14.40625 -3.65625 C 14.851562 -3.800781 15.222656 -3.929688 15.515625 -4.046875 C 15.816406 -4.171875 16.0625 -4.234375 16.25 -4.234375 C 16.363281 -4.234375 16.457031 -4.207031 16.53125 -4.15625 C 16.601562 -4.113281 16.664062 -4.035156 16.71875 -3.921875 C 16.769531 -3.816406 16.800781 -3.660156 16.8125 -3.453125 C 16.832031 -3.253906 16.84375 -3 16.84375 -2.6875 C 16.84375 -2.414062 16.835938 -2.179688 16.828125 -1.984375 C 16.816406 -1.796875 16.796875 -1.632812 16.765625 -1.5 C 16.742188 -1.363281 16.707031 -1.25 16.65625 -1.15625 C 16.613281 -1.0625 16.550781 -0.972656 16.46875 -0.890625 C 16.382812 -0.804688 16.160156 -0.6875 15.796875 -0.53125 C 15.441406 -0.382812 14.984375 -0.238281 14.421875 -0.09375 C 13.867188 0.0390625 13.234375 0.160156 12.515625 0.265625 C 11.804688 0.367188 11.039062 0.421875 10.21875 0.421875 C 8.75 0.421875 7.457031 0.238281 6.34375 -0.125 C 5.238281 -0.5 4.316406 -1.0625 3.578125 -1.8125 C 2.835938 -2.570312 2.285156 -3.523438 1.921875 -4.671875 C 1.554688 -5.828125 1.375 -7.175781 1.375 -8.71875 C 1.375 -10.1875 1.566406 -11.507812 1.953125 -12.6875 C 2.335938 -13.875 2.894531 -14.878906 3.625 -15.703125 C 4.351562 -16.523438 5.238281 -17.148438 6.28125 -17.578125 C 7.320312 -18.015625 8.5 -18.234375 9.8125 -18.234375 C 11.195312 -18.234375 12.378906 -18.03125 13.359375 -17.625 C 14.347656 -17.21875 15.15625 -16.648438 15.78125 -15.921875 C 16.414062 -15.203125 16.878906 -14.347656 17.171875 -13.359375 C 17.472656 -12.367188 17.625 -11.289062 17.625 -10.125 Z M 13.09375 -10.71875 C 13.132812 -12.03125 12.875 -13.0625 12.3125 -13.8125 C 11.75 -14.5625 10.878906 -14.9375 9.703125 -14.9375 C 9.109375 -14.9375 8.59375 -14.820312 8.15625 -14.59375 C 7.71875 -14.375 7.351562 -14.078125 7.0625 -13.703125 C 6.769531 -13.328125 6.546875 -12.878906 6.390625 -12.359375 C 6.234375 -11.847656 6.144531 -11.300781 6.125 -10.71875 Z M 13.09375 -10.71875 "/></g></g></g><g fill="#14bcbb" fill-opacity="1"><g transform="translate(250.724282, 201.749987)"><g><path d="M 16.4375 -0.578125 C 16.4375 -0.398438 16.375 -0.257812 16.25 -0.15625 C 16.125 -0.0625 15.925781 0.00390625 15.65625 0.046875 C 15.394531 0.0859375 15.003906 0.109375 14.484375 0.109375 C 13.929688 0.109375 13.523438 0.0859375 13.265625 0.046875 C 13.015625 0.00390625 12.835938 -0.0625 12.734375 -0.15625 C 12.628906 -0.257812 12.578125 -0.398438 12.578125 -0.578125 L 12.578125 -1.890625 C 11.898438 -1.160156 11.125 -0.59375 10.25 -0.1875 C 9.375 0.21875 8.40625 0.421875 7.34375 0.421875 C 6.46875 0.421875 5.660156 0.304688 4.921875 0.078125 C 4.191406 -0.148438 3.554688 -0.488281 3.015625 -0.9375 C 2.472656 -1.382812 2.050781 -1.941406 1.75 -2.609375 C 1.457031 -3.285156 1.3125 -4.066406 1.3125 -4.953125 C 1.3125 -5.921875 1.5 -6.757812 1.875 -7.46875 C 2.257812 -8.175781 2.820312 -8.757812 3.5625 -9.21875 C 4.3125 -9.6875 5.242188 -10.03125 6.359375 -10.25 C 7.472656 -10.476562 8.769531 -10.59375 10.25 -10.59375 L 11.859375 -10.59375 L 11.859375 -11.59375 C 11.859375 -12.113281 11.804688 -12.566406 11.703125 -12.953125 C 11.597656 -13.347656 11.421875 -13.675781 11.171875 -13.9375 C 10.929688 -14.195312 10.609375 -14.390625 10.203125 -14.515625 C 9.804688 -14.640625 9.3125 -14.703125 8.71875 -14.703125 C 7.9375 -14.703125 7.238281 -14.613281 6.625 -14.4375 C 6.019531 -14.257812 5.484375 -14.066406 5.015625 -13.859375 C 4.546875 -13.648438 4.148438 -13.457031 3.828125 -13.28125 C 3.515625 -13.113281 3.257812 -13.03125 3.0625 -13.03125 C 2.925781 -13.03125 2.804688 -13.070312 2.703125 -13.15625 C 2.597656 -13.238281 2.507812 -13.359375 2.4375 -13.515625 C 2.375 -13.679688 2.320312 -13.878906 2.28125 -14.109375 C 2.25 -14.347656 2.234375 -14.613281 2.234375 -14.90625 C 2.234375 -15.28125 2.257812 -15.578125 2.3125 -15.796875 C 2.375 -16.023438 2.492188 -16.226562 2.671875 -16.40625 C 2.847656 -16.59375 3.148438 -16.789062 3.578125 -17 C 4.015625 -17.21875 4.519531 -17.421875 5.09375 -17.609375 C 5.675781 -17.796875 6.3125 -17.945312 7 -18.0625 C 7.6875 -18.175781 8.394531 -18.234375 9.125 -18.234375 C 10.425781 -18.234375 11.535156 -18.109375 12.453125 -17.859375 C 13.378906 -17.609375 14.140625 -17.21875 14.734375 -16.6875 C 15.328125 -16.164062 15.757812 -15.488281 16.03125 -14.65625 C 16.300781 -13.832031 16.4375 -12.847656 16.4375 -11.703125 Z M 11.859375 -7.65625 L 10.078125 -7.65625 C 9.316406 -7.65625 8.671875 -7.597656 8.140625 -7.484375 C 7.609375 -7.378906 7.175781 -7.210938 6.84375 -6.984375 C 6.507812 -6.765625 6.265625 -6.5 6.109375 -6.1875 C 5.953125 -5.875 5.875 -5.515625 5.875 -5.109375 C 5.875 -4.410156 6.09375 -3.863281 6.53125 -3.46875 C 6.976562 -3.070312 7.59375 -2.875 8.375 -2.875 C 9.03125 -2.875 9.628906 -3.039062 10.171875 -3.375 C 10.722656 -3.707031 11.285156 -4.195312 11.859375 -4.84375 Z M 11.859375 -7.65625 "/></g></g></g><g fill="#14bcbb" fill-opacity="1"><g transform="translate(269.479214, 201.749987)"><g><path d="M 7.015625 -0.625 C 7.015625 -0.507812 6.976562 -0.40625 6.90625 -0.3125 C 6.832031 -0.21875 6.703125 -0.140625 6.515625 -0.078125 C 6.335938 -0.015625 6.097656 0.03125 5.796875 0.0625 C 5.503906 0.09375 5.128906 0.109375 4.671875 0.109375 C 4.210938 0.109375 3.832031 0.09375 3.53125 0.0625 C 3.238281 0.03125 3.003906 -0.015625 2.828125 -0.078125 C 2.648438 -0.140625 2.523438 -0.21875 2.453125 -0.3125 C 2.378906 -0.40625 2.34375 -0.507812 2.34375 -0.625 L 2.34375 -25.03125 C 2.34375 -25.15625 2.378906 -25.265625 2.453125 -25.359375 C 2.523438 -25.460938 2.648438 -25.546875 2.828125 -25.609375 C 3.003906 -25.679688 3.238281 -25.734375 3.53125 -25.765625 C 3.832031 -25.804688 4.210938 -25.828125 4.671875 -25.828125 C 5.128906 -25.828125 5.503906 -25.804688 5.796875 -25.765625 C 6.097656 -25.734375 6.335938 -25.679688 6.515625 -25.609375 C 6.703125 -25.546875 6.832031 -25.460938 6.90625 -25.359375 C 6.976562 -25.265625 7.015625 -25.15625 7.015625 -25.03125 Z M 7.015625 -0.625 "/></g></g></g><g fill="#14bcbb" fill-opacity="1"><g transform="translate(278.810302, 201.749987)"><g><path d="M 12.140625 -2.265625 C 12.140625 -1.722656 12.101562 -1.304688 12.03125 -1.015625 C 11.96875 -0.722656 11.878906 -0.515625 11.765625 -0.390625 C 11.648438 -0.273438 11.484375 -0.171875 11.265625 -0.078125 C 11.054688 0.015625 10.804688 0.09375 10.515625 0.15625 C 10.222656 0.226562 9.90625 0.28125 9.5625 0.3125 C 9.226562 0.351562 8.882812 0.375 8.53125 0.375 C 7.601562 0.375 6.800781 0.253906 6.125 0.015625 C 5.445312 -0.210938 4.882812 -0.570312 4.4375 -1.0625 C 3.988281 -1.550781 3.660156 -2.164062 3.453125 -2.90625 C 3.242188 -3.65625 3.140625 -4.535156 3.140625 -5.546875 L 3.140625 -14.03125 L 1.15625 -14.03125 C 0.914062 -14.03125 0.734375 -14.175781 0.609375 -14.46875 C 0.484375 -14.757812 0.421875 -15.242188 0.421875 -15.921875 C 0.421875 -16.273438 0.4375 -16.578125 0.46875 -16.828125 C 0.5 -17.078125 0.546875 -17.269531 0.609375 -17.40625 C 0.671875 -17.550781 0.75 -17.65625 0.84375 -17.71875 C 0.9375 -17.78125 1.046875 -17.8125 1.171875 -17.8125 L 3.140625 -17.8125 L 3.140625 -21.5 C 3.140625 -21.625 3.171875 -21.734375 3.234375 -21.828125 C 3.304688 -21.929688 3.429688 -22.015625 3.609375 -22.078125 C 3.785156 -22.148438 4.023438 -22.203125 4.328125 -22.234375 C 4.628906 -22.265625 5.003906 -22.28125 5.453125 -22.28125 C 5.910156 -22.28125 6.289062 -22.265625 6.59375 -22.234375 C 6.894531 -22.203125 7.132812 -22.148438 7.3125 -22.078125 C 7.488281 -22.015625 7.613281 -21.929688 7.6875 -21.828125 C 7.757812 -21.734375 7.796875 -21.625 7.796875 -21.5 L 7.796875 -17.8125 L 11.390625 -17.8125 C 11.515625 -17.8125 11.625 -17.78125 11.71875 -17.71875 C 11.8125 -17.65625 11.890625 -17.550781 11.953125 -17.40625 C 12.015625 -17.269531 12.0625 -17.078125 12.09375 -16.828125 C 12.125 -16.578125 12.140625 -16.273438 12.140625 -15.921875 C 12.140625 -15.242188 12.078125 -14.757812 11.953125 -14.46875 C 11.828125 -14.175781 11.644531 -14.03125 11.40625 -14.03125 L 7.796875 -14.03125 L 7.796875 -6.25 C 7.796875 -5.351562 7.9375 -4.675781 8.21875 -4.21875 C 8.5 -3.769531 9.003906 -3.546875 9.734375 -3.546875 C 9.984375 -3.546875 10.207031 -3.566406 10.40625 -3.609375 C 10.601562 -3.648438 10.78125 -3.695312 10.9375 -3.75 C 11.09375 -3.8125 11.222656 -3.863281 11.328125 -3.90625 C 11.429688 -3.945312 11.523438 -3.96875 11.609375 -3.96875 C 11.691406 -3.96875 11.765625 -3.945312 11.828125 -3.90625 C 11.898438 -3.863281 11.953125 -3.773438 11.984375 -3.640625 C 12.023438 -3.515625 12.0625 -3.335938 12.09375 -3.109375 C 12.125 -2.890625 12.140625 -2.609375 12.140625 -2.265625 Z M 12.140625 -2.265625 "/></g></g></g><g fill="#14bcbb" fill-opacity="1"><g transform="translate(291.981421, 201.749987)"><g><path d="M 18.140625 -0.625 C 18.140625 -0.507812 18.101562 -0.40625 18.03125 -0.3125 C 17.957031 -0.21875 17.832031 -0.140625 17.65625 -0.078125 C 17.488281 -0.015625 17.253906 0.03125 16.953125 0.0625 C 16.648438 0.09375 16.273438 0.109375 15.828125 0.109375 C 15.367188 0.109375 14.988281 0.09375 14.6875 0.0625 C 14.382812 0.03125 14.144531 -0.015625 13.96875 -0.078125 C 13.800781 -0.140625 13.675781 -0.21875 13.59375 -0.3125 C 13.519531 -0.40625 13.484375 -0.507812 13.484375 -0.625 L 13.484375 -10.078125 C 13.484375 -10.878906 13.425781 -11.507812 13.3125 -11.96875 C 13.195312 -12.425781 13.023438 -12.816406 12.796875 -13.140625 C 12.578125 -13.472656 12.289062 -13.726562 11.9375 -13.90625 C 11.582031 -14.082031 11.171875 -14.171875 10.703125 -14.171875 C 10.109375 -14.171875 9.507812 -13.953125 8.90625 -13.515625 C 8.300781 -13.085938 7.671875 -12.460938 7.015625 -11.640625 L 7.015625 -0.625 C 7.015625 -0.507812 6.976562 -0.40625 6.90625 -0.3125 C 6.832031 -0.21875 6.703125 -0.140625 6.515625 -0.078125 C 6.335938 -0.015625 6.097656 0.03125 5.796875 0.0625 C 5.503906 0.09375 5.128906 0.109375 4.671875 0.109375 C 4.210938 0.109375 3.832031 0.09375 3.53125 0.0625 C 3.238281 0.03125 3.003906 -0.015625 2.828125 -0.078125 C 2.648438 -0.140625 2.523438 -0.21875 2.453125 -0.3125 C 2.378906 -0.40625 2.34375 -0.507812 2.34375 -0.625 L 2.34375 -25.03125 C 2.34375 -25.15625 2.378906 -25.265625 2.453125 -25.359375 C 2.523438 -25.460938 2.648438 -25.546875 2.828125 -25.609375 C 3.003906 -25.679688 3.238281 -25.734375 3.53125 -25.765625 C 3.832031 -25.804688 4.210938 -25.828125 4.671875 -25.828125 C 5.128906 -25.828125 5.503906 -25.804688 5.796875 -25.765625 C 6.097656 -25.734375 6.335938 -25.679688 6.515625 -25.609375 C 6.703125 -25.546875 6.832031 -25.460938 6.90625 -25.359375 C 6.976562 -25.265625 7.015625 -25.15625 7.015625 -25.03125 L 7.015625 -15.890625 C 7.816406 -16.679688 8.632812 -17.269531 9.46875 -17.65625 C 10.300781 -18.039062 11.171875 -18.234375 12.078125 -18.234375 C 13.203125 -18.234375 14.148438 -18.046875 14.921875 -17.671875 C 15.703125 -17.304688 16.328125 -16.800781 16.796875 -16.15625 C 17.273438 -15.519531 17.617188 -14.769531 17.828125 -13.90625 C 18.035156 -13.050781 18.140625 -12.007812 18.140625 -10.78125 Z M 18.140625 -0.625 "/></g></g></g></svg>